# xmcd
#
# Track frame offsets: 
#        150
#        15461
#        35494
#        62620
#        85692
#        100534
#        117127
#        144827
#        158573
#
# Disc length: 2386 seconds
#
# Revision: 2
# Processed by: cddbd v1.5.2PL0 Copyright (c) Steve Scherf et al.
# Submitted via: ExactAudioCopy v0.99pb5
#
DISCID=5a095009
DTITLE=Ry Cooder - Chicken Skin Music (JP-Import)
DYEAR=1976
DGENRE=Blues
TTITLE0=The Bourgeois Blues
TTITLE1=I Got Mine
TTITLE2=Always Lift Him Up
TTITLE3=He'll Have To Go
TTITLE4=Smack Dab In The Middle
TTITLE5=Stand By Me
TTITLE6=Yellow Roses
TTITLE7=Chloe
TTITLE8=Goodnight Irene
EXTD=
EXTT0=Huddie Ledbetter - Alan Lomax
EXTT1=Traditional
EXTT2=Alfred Reed - Traditional
EXTT3=Allison - Allison
EXTT4=Charles E. Calhoun
EXTT5=Ben E. King - Jerry Leiber - Mike Stoller
EXTT6=K. Devine - S. Nichols
EXTT7=Gus Kahn - Neil Moret
EXTT8=Huddie Ledbetter and John Lomax
PLAYORDER=
